<?xml version="1.0" encoding="UTF-8"?>
<!DOCTYPE svg PUBLIC "-//W3C//DTD SVG 1.1//EN" "http://www.w3.org/Graphics/SVG/1.1/DTD/svg11.dtd">
<!-- Creator: CorelDRAW -->
<svg xmlns="http://www.w3.org/2000/svg" xml:space="preserve" width="6.82666in" height="6.82666in" style="shape-rendering:geometricPrecision; text-rendering:geometricPrecision; image-rendering:optimizeQuality; fill-rule:evenodd; clip-rule:evenodd"
viewBox="0 0 6.82666 6.82666"
 xmlns:xlink="http://www.w3.org/1999/xlink">
 <defs>
  <style type="text/css">
   <![CDATA[
    .fil0 {fill:#3F51B5}
    .fil1 {fill:#FFFFFE}
    .fil2 {fill:#FFFFFE;fill-rule:nonzero}
   ]]>
  </style>
 </defs>
 <g id="Layer_x0020_1">
  <metadata id="CorelCorpID_0Corel-Layer"/>
  <rect class="fil0" width="6.82666" height="6.82666" rx="0.853335" ry="0.853335"/>
  <g id="_485383152">
   <path id="_485383752" class="fil1" d="M5.38878 2.93452l0 2.93428 -3.93701e-006 0.104528 -0.106665 0 -0.319461 0 0 -0.104528 0 -2.40233 0 -0.104531 -0.106669 0 -0.960535 0 -0.106669 0 0 0.104531 0 2.40233 0 0.104528 -2.13333 0 -0.106669 0 0 -0.104528 0 -2.95936c0.0777402,-0.025 0.150185,-0.0648819 0.213575,-0.119028 0.114622,0.0969252 0.259811,0.150189 0.41139,0.150189 0.152374,0 0.298295,-0.0538228 0.413197,-0.15172 0.114906,0.0978976 0.260823,0.15172 0.413201,0.15172 0.152374,0 0.298295,-0.0538228 0.413193,-0.151724 0.114902,0.0979016 0.260823,0.151724 0.413197,0.151724 0.152378,0 0.298299,-0.0538228 0.413205,-0.151724 0.114898,0.0979016 0.260815,0.151724 0.413193,0.151724 0.151579,0 0.296764,-0.0532638 0.41139,-0.150189 0.0927047,0.0791929 0.204772,0.127854 0.324465,0.144106zm-3.30667 0.427425l1.38667 0 0.106669 0 0 0.104531 0 1.67241 0 0.104528 -0.106669 0 -1.38667 0 -0.106669 0 0 -0.104528 0 -1.67241 0 -0.104531 0.106669 0z"/>
   <polygon id="_485383728" class="fil2" points="1.81087,0.853331 5.12667,0.853331 5.23334,0.853331 5.23334,0.957858 5.23334,1.48048 5.23334,1.58502 5.12667,1.58502 1.81087,1.58502 1.7042,1.58502 1.7042,1.48048 1.7042,0.957858 1.7042,0.853331 "/>
   <path id="_485382960" class="fil2" d="M5.99375 2.17196c-0.00011811,0.0221929 0.00034252,0.0240984 0.000877953,0.0262953 0.000834646,0.00343701 0.00170079,0.00701575 0.00255118,0.0114646l-5.10137 0 0.840067 -0.818303 0.075 -0.030626 3.3158 0 0.0733346 0.0289921 0.760827 0.706232 0.0331614 0.0307874 -0.000244094 0.0451575zm0.00916535 0.142283l1.1811e-005 0.00873622c0,0.101776 -0.0722244,0.249047 -0.181791,0.356413 -0.0914646,0.0896299 -0.211248,0.156689 -0.341819,0.156689 -0.135224,0 -0.25448,-0.0470315 -0.345354,-0.124835 -0.0254291,-0.0217677 -0.0485354,-0.045937 -0.0690709,-0.0721181 -0.0203189,0.0253898 -0.0430315,0.0488504 -0.0677992,0.0700512 -0.0922953,0.0790197 -0.212717,0.126902 -0.344169,0.126902 -0.131453,0 -0.251878,-0.0478819 -0.344177,-0.126909 -0.0252677,-0.0216339 -0.0483858,-0.0456181 -0.0690197,-0.0715945 -0.0206299,0.0259803 -0.043752,0.0499646 -0.0690197,0.0715984 -0.0922992,0.0790197 -0.21272,0.126906 -0.344181,0.126906 -0.131453,0 -0.251874,-0.0478819 -0.344169,-0.126902 -0.0252677,-0.0216339 -0.0483898,-0.0456181 -0.0690236,-0.0715984 -0.0206339,0.0259803 -0.0437559,0.0499646 -0.0690276,0.0715984 -0.0922913,0.0790236 -0.212717,0.126902 -0.344169,0.126902 -0.131461,0 -0.251882,-0.0478858 -0.344181,-0.126906 -0.0252677,-0.0216339 -0.0483858,-0.045622 -0.0690197,-0.0716024 -0.0206339,0.0259803 -0.043752,0.0499685 -0.0690197,0.0716024 -0.0922953,0.0790197 -0.21272,0.126906 -0.344177,0.126906 -0.131457,0 -0.251882,-0.0478858 -0.344177,-0.126906 -0.0247638,-0.0212008 -0.0474724,-0.0446614 -0.0677913,-0.0700472 -0.0205315,0.0261811 -0.0436378,0.0503425 -0.069063,0.0721142 -0.090874,0.0778031 -0.210142,0.124839 -0.345366,0.124839 -0.140677,0 -0.272949,-0.0584213 -0.369091,-0.152634 -0.0943346,-0.0924409 -0.15452,-0.219685 -0.15452,-0.360469l0 -0.00873622 5.17919 0z"/>
  </g>
 </g>
</svg>
